<svg viewBox="0 0 1920 1080" height="1080" width="1920" xmlns="http://www.w3.org/2000/svg" version="1.1"><rect x="0" y="0" width="1920" height="1080" fill="#91caff"></rect><g transform-origin="960 540" transform="scale(1, 1)"><linearGradient id="linear-gradient-r1"><stop offset="0%" stop-color="#69b1ff" stop-opacity="100%"></stop><stop offset="100%" stop-color="#1677ff" stop-opacity="100%"></stop></linearGradient><filter id="shadow-r1" x="-20%" width="150%" y="-20%" height="150%"><feDropShadow dx="0" dy="0" stdDeviation="10" flood-color="#00000061"></feDropShadow></filter><path d="M0 0 C 0,962.999167770613 -62.408882584888474,1024.3901187398471 0,962.999167770613 C 62.40888258488849,901.6082168013788 153.9721560066566,759.3719895607792 312.04441292444244,656.0444129244424 C 470.11666984222825,552.7168362881057 673.4225022434257,577.5701671738177 790.3612845889293,446.36128458892927 C 907.3000669344328,315.1524020040408 875.462916639354,89.27225691778585 896.7383246519603,0 L0 0Z" fill="none" stroke-linecap="round" filter="url(#shadow-r1)" stroke-width="1" style="transition: 0.4s cubic-bezier(0.16, 1, 0.3, 1); fill: url(&quot;#linear-gradient-r1&quot;);"></path><path d="M0 0 C 0,971.4772522933781 -95.1354218415916,1009.2372809104621 0,971.4772522933781 C 95.1354218415916,933.7172236762941 334.9187421113253,897.6141925700009 475.677109207958,782.677109207958 C 616.4354763045907,667.740025845915 638.4340545665473,553.3272573247552 703.7918354831636,396.7918354831636 C 769.1496163997799,240.25641364157198 782.7311781294644,79.35836709663272 802.4660137910396,0 L0 0Z" fill="none" stroke-linecap="round" filter="url(#shadow-r1)" stroke-width="1" style="transition: 0.4s cubic-bezier(0.16, 1, 0.3, 1); fill: url(&quot;#linear-gradient-r1&quot;);"></path><path d="M0 0 C 0,791.2873367597349 -59.52939298423008,836.2154111274518 0,791.2873367597349 C 59.529392984230086,746.359262392018 206.5598007968627,687.6172681488097 297.64696492115036,566.6469649211504 C 388.734129045438,445.67666169349104 355.61918159117926,299.7652136056684 455.4358206214383,186.43582062143832 C 555.2524596516974,73.10642763720824 728.4712921822444,37.28716412428767 796.7301600724459,0 L0 0Z" fill="none" stroke-linecap="round" filter="url(#shadow-r1)" stroke-width="1" style="transition: 0.4s cubic-bezier(0.16, 1, 0.3, 1); fill: url(&quot;#linear-gradient-r1&quot;);"></path><path d="M0 0 C 0,666.0782557548955 -78.65087948143483,674.2430274244398 0,666.0782557548955 C 78.65087948143483,657.9134840853512 287.76235111653807,699.3780022675172 393.2543974071741,625.2543974071741 C 498.74644369781015,551.1307925468311 474.08590504843744,420.51111093461515 527.4602314531803,295.4602314531803 C 580.8345578579232,170.40935197174548 633.592869835347,59.09204629063608 660.1260294308886,0 L0 0Z" fill="none" stroke-linecap="round" filter="url(#shadow-r1)" stroke-width="1" style="transition: 0.4s cubic-bezier(0.16, 1, 0.3, 1); fill: url(&quot;#linear-gradient-r1&quot;);"></path><path d="M0 0 C 0,508.78090110747144 -54.405502350721505,517.3315789782442 0,508.78090110747144 C 54.405502350721505,500.23022323669863 199.24735440667718,533.8035346281715 272.02751175360754,466.02751175360754 C 344.8076691005379,398.2514888790436 309.72376586450264,263.1062890853733 363.9007867346518,169.90078673465177 C 418.0778076048009,76.69528438393026 507.11025023041293,33.98015734693036 542.9126161043532,0 L0 0Z" fill="none" stroke-linecap="round" filter="url(#shadow-r1)" stroke-width="1" style="transition: 0.4s cubic-bezier(0.16, 1, 0.3, 1); fill: url(&quot;#linear-gradient-r1&quot;);"></path></g><g transform-origin="960 540" transform="scale(-1, -1)"><linearGradient id="linear-gradient-r1"><stop offset="0%" stop-color="#69b1ff" stop-opacity="100%"></stop><stop offset="100%" stop-color="#1677ff" stop-opacity="100%"></stop></linearGradient><filter id="shadow-r1" x="-20%" width="150%" y="-20%" height="150%"><feDropShadow dx="0" dy="0" stdDeviation="10" flood-color="#00000061"></feDropShadow></filter><path d="M0 0 C 0,896.7383246519603 -86.59086308022961,920.6951265021228 0,896.7383246519603 C 86.59086308022962,872.7815228017978 282.1247596114874,874.2724245418794 432.95431540114805,776.954315401148 C 583.7838711908087,679.6362062604167 647.5060351602733,565.538642028533 754.1477789483033,410.1477789483033 C 860.7895227363333,254.7569158680737 923.7599832626992,82.02955578966069 966.163034341298,0 L0 0Z" fill="none" stroke-linecap="round" filter="url(#shadow-r1)" stroke-width="1" style="transition: 0.4s cubic-bezier(0.16, 1, 0.3, 1); fill: url(&quot;#linear-gradient-r1&quot;);"></path><path d="M0 0 C 0,805.2847642041743 -87.66853052787482,817.2731865171343 0,805.2847642041743 C 87.66853052787484,793.2963418912143 285.0471814397722,814.5041342806072 438.34265263937414,745.3426526393741 C 591.6381238389761,676.1811709981412 645.1247400499881,608.5458865258843 766.4773559980094,459.47735599800944 C 887.8299719460309,310.4088254701346 989.3800571031868,91.8954711996019 1045.1057323794812,0 L0 0Z" fill="none" stroke-linecap="round" filter="url(#shadow-r1)" stroke-width="1" style="transition: 0.4s cubic-bezier(0.16, 1, 0.3, 1); fill: url(&quot;#linear-gradient-r1&quot;);"></path><path d="M0 0 C 0,866.1163061689585 -37.620183210633705,947.9193841921166 0,866.1163061689585 C 37.6201832106337,784.3132281458005 76.7988743943162,572.822135628108 188.10091605316848,457.1009160531685 C 299.40295771202074,341.379696478229 418.5821656625718,378.93039150489494 556.5102082942612,287.51020829426125 C 694.4382509259507,196.09002508362755 813.4949450281449,57.502041658852264 877.7411292116158,0 L0 0Z" fill="none" stroke-linecap="round" filter="url(#shadow-r1)" stroke-width="1" style="transition: 0.4s cubic-bezier(0.16, 1, 0.3, 1); fill: url(&quot;#linear-gradient-r1&quot;);"></path><path d="M0 0 C 0,677.0220196517184 -37.075300320424134,728.951123261638 0,677.0220196517184 C 37.075300320424134,625.0929160417988 102.73929759990428,516.543701530248 185.3765016021207,417.3765016021207 C 268.01370560433713,318.2093016739935 314.70107714496555,264.66132033150643 413.1860200110823,181.1860200110823 C 511.6709628771991,97.71071969065814 624.87817674838,36.237204002216465 677.8012159327045,0 L0 0Z" fill="none" stroke-linecap="round" filter="url(#shadow-r1)" stroke-width="1" style="transition: 0.4s cubic-bezier(0.16, 1, 0.3, 1); fill: url(&quot;#linear-gradient-r1&quot;);"></path><path d="M0 0 C 0,528.8469936233014 -53.37438941355796,542.4420029344037 0,528.8469936233014 C 53.37438941355796,515.251984312199 193.10596190905198,531.6753606337122 266.87194706778973,460.87194706778973 C 340.6379322265275,390.0685335018672 296.70093765351925,267.00431520724675 368.82992579368874,174.82992579368874 C 440.9589139338583,82.65553638013078 575.7794953736477,34.96598515873777 627.5168877686374,0 L0 0Z" fill="none" stroke-linecap="round" filter="url(#shadow-r1)" stroke-width="1" style="transition: 0.4s cubic-bezier(0.16, 1, 0.3, 1); fill: url(&quot;#linear-gradient-r1&quot;);"></path></g></svg>