<svg viewBox="0 0 1920 1080" height="1080" width="1920" xmlns="http://www.w3.org/2000/svg" version="1.1"><rect x="0" y="0" width="1920" height="1080" fill="#ff0071ff"></rect><g transform-origin="960 540" transform="scale(1, 1)"><linearGradient id="linear-gradient-r1"><stop offset="0%" stop-color="#95ffda" stop-opacity="100%"></stop><stop offset="100%" stop-color="#95ffa1ff" stop-opacity="100%"></stop></linearGradient><filter id="shadow-r1" x="-20%" width="150%" y="-20%" height="150%"><feDropShadow dx="0" dy="0" stdDeviation="10" flood-color="#00000061"></feDropShadow></filter><path d="M0 0 C 0,1016.1432385677472 -58.395085510890915,1057.7768007704058 0,1016.1432385677472 C 58.39508551089093,974.5096763650887 193.83258581291886,913.0612335264683 291.97542755445465,807.9754275544547 C 390.11826929599044,702.889621582441 357.20801936341445,563.6080193634145 490.71420870767906,490.71420870767906 C 624.2203980519437,417.82039805194364 835.5912878933362,541.6492160173133 959.5063742757775,443.5063742757775 C 1083.4214606582186,345.3635325342417 1080.1329873510635,88.70127485515552 1110.2896406198852,0 L0 0Z" fill="none" stroke-linecap="round" filter="url(#shadow-r1)" stroke-width="1" style="transition: 0.4s cubic-bezier(0.16, 1, 0.3, 1); fill: url(&quot;#linear-gradient-r1&quot;);"></path><path d="M0 0 C 0,840.4902767278254 -51.92561638100695,866.8627156923835 0,840.4902767278254 C 51.92561638100694,814.1178377632673 177.6482014962782,794.7462568418434 259.62808190503466,708.6280819050347 C 341.6079623137911,622.509906968226 302.3743184010498,481.9743184010498 409.8994020437822,409.8994020437822 C 517.4244856865146,337.8244856865145 696.4361688693675,430.2333805274529 797.2535001186965,348.2535001186964 C 898.0708313680254,266.27361970994 890.6395466560808,69.65070002373928 913.986058290427,0 L0 0Z" fill="none" stroke-linecap="round" filter="url(#shadow-r1)" stroke-width="1" style="transition: 0.4s cubic-bezier(0.16, 1, 0.3, 1); fill: url(&quot;#linear-gradient-r1&quot;);"></path><path d="M0 0 C 0,865.5983640324945 -60.356747992616135,901.7612888463773 0,865.5983640324945 C 60.35674799261614,829.4354392186117 203.29008829134207,759.4097610978409 301.78373996308073,684.7837399630807 C 400.2773916348194,610.1577188283205 431.38834331814826,584.5883433181482 492.4682583586934,492.4682583586934 C 553.5481733992385,400.34817339923853 552.7923397464058,322.67696683754525 607.1833151658066,224.18331516580656 C 661.5742905852075,125.68966349406789 732.9751713977196,44.83666303316131 764.4231354556978,0 L0 0Z" fill="none" stroke-linecap="round" filter="url(#shadow-r1)" stroke-width="1" style="transition: 0.4s cubic-bezier(0.16, 1, 0.3, 1); fill: url(&quot;#linear-gradient-r1&quot;);"></path><path d="M0 0 C 0,625.9529005168006 -57.227824840974066,630.9156557791866 0,625.9529005168006 C 57.227824840974066,620.9901452544145 229.6829658938572,669.8735459972173 286.1391242048703,601.1391242048703 C 342.59528251588347,532.4047024125233 216.73172668591144,342.73172668591144 282.28079155506566,282.28079155506566 C 347.8298564242199,221.8298564242199 537.0201921681874,355.3406068616547 613.8844485506415,298.88444855064154 C 690.7487049330957,242.4282902396284 656.0585484839976,59.776889710128316 666.6020734673366,0 L0 0Z" fill="none" stroke-linecap="round" filter="url(#shadow-r1)" stroke-width="1" style="transition: 0.4s cubic-bezier(0.16, 1, 0.3, 1); fill: url(&quot;#linear-gradient-r1&quot;);"></path></g><g transform-origin="960 540" transform="scale(-1, -1)"><linearGradient id="linear-gradient-r1"><stop offset="0%" stop-color="#95ffda" stop-opacity="100%"></stop><stop offset="100%" stop-color="#95ffa1ff" stop-opacity="100%"></stop></linearGradient><filter id="shadow-r1" x="-20%" width="150%" y="-20%" height="150%"><feDropShadow dx="0" dy="0" stdDeviation="10" flood-color="#00000061"></feDropShadow></filter><path d="M0 0 C 0,1176.5063742757775 -75.45792812397706,1233.149721006956 0,1176.5063742757775 C 75.45792812397706,1119.863027544599 266.7547147431411,1018.0559895982966 377.2896406198852,893.2896406198852 C 487.82456649662925,768.5232916414737 457.9787225473672,664.3787225473673 552.6746293837205,552.6746293837205 C 647.3705362200737,440.9705362200737 743.825054134801,445.3041006783955 850.7691748016514,334.7691748016514 C 957.7132954685018,224.23424892490726 1040.070021134708,66.95383496033028 1087.3952327179722,0 L0 0Z" fill="none" stroke-linecap="round" filter="url(#shadow-r1)" stroke-width="1" style="transition: 0.4s cubic-bezier(0.16, 1, 0.3, 1); fill: url(&quot;#linear-gradient-r1&quot;);"></path><path d="M0 0 C 0,856.9693467989564 -58.13521469670038,880.4280014620473 0,856.9693467989564 C 58.13521469670038,833.5106921358655 172.61083372657495,793.0047030863664 290.67607348350185,739.6760734835019 C 408.7413132404288,686.3474438806376 519.3083423932082,698.9083423932083 590.3261987846345,590.3261987846345 C 661.3440551760607,481.74405517606067 559.9527235888877,314.83059519755966 645.7653554406328,196.76535544063273 C 731.5779872923779,78.7001156837058 944.6645575228147,39.35307108812654 1019.3893580433602,0 L0 0Z" fill="none" stroke-linecap="round" filter="url(#shadow-r1)" stroke-width="1" style="transition: 0.4s cubic-bezier(0.16, 1, 0.3, 1); fill: url(&quot;#linear-gradient-r1&quot;);"></path><path d="M0 0 C 0,659.0383480819874 -55.571693715297926,658.6743239830869 0,659.0383480819874 C 55.571693715297926,659.4023721808878 193.71849561417477,708.5261652305721 277.85846857648966,660.8584685764896 C 361.9984415388045,613.1907719224071 365.56425328391293,518.7642532839129 420.6998648115744,420.6998648115744 C 475.83547633923587,322.6354763392359 496.59258427135643,254.6764991771119 553.536526214797,170.53652621479705 C 610.4804681582376,86.39655325248216 675.0429648659813,34.10730524295941 705.4195745287774,0 L0 0Z" fill="none" stroke-linecap="round" filter="url(#shadow-r1)" stroke-width="1" style="transition: 0.4s cubic-bezier(0.16, 1, 0.3, 1); fill: url(&quot;#linear-gradient-r1&quot;);"></path><path d="M0 0 C 0,737.2775165969506 -19.0794629247859,802.6535569915548 0,737.2775165969506 C 19.079462924785908,671.9014762023464 13.982339578121895,476.43784289751204 95.39731462392956,410.39731462392956 C 176.81228966973723,344.3567863503471 312.0599686745554,438.0599686745554 407.0748752290383,407.0748752290383 C 502.0897817835212,376.0897817835212 512.3096203629859,336.8868224421516 570.471847396344,255.47184739634395 C 628.634074429702,174.05687235053628 672.4031777959317,51.09436947926879 697.8860103958286,0 L0 0Z" fill="none" stroke-linecap="round" filter="url(#shadow-r1)" stroke-width="1" style="transition: 0.4s cubic-bezier(0.16, 1, 0.3, 1); fill: url(&quot;#linear-gradient-r1&quot;);"></path></g></svg>